<?xml version="1.0" encoding="UTF-8"?>
<svg xmlns="http://www.w3.org/2000/svg" viewBox="0 65 108.77 36">
  <defs>
    <style>
      .cls-1 { fill: #000000; }
    </style>
  </defs>
  <path class="cls-1" d="M7.27,75.67c-1.8,0-3.28.04-4.3.08-.74.04-1.33.12-1.45.12-.16,0-.2-.04-.35-.23l-.78-.9c-.12-.12-.16-.16-.16-.27,0-.08.08-.08.16-.08l2.46.16c1.52.08,3.05.12,4.61.12h6.92c.63,0,1.13-.35,1.13-1.02,0-1.25-.04-3.52-.16-4.49-.08-.66-.16-1.09-.16-1.25,0-.2.12-.23.27-.23.43,0,1.76.23,3.01.55.47.08,1.13.31,1.13.86,0,.23-.16.39-.63.78-.55.47-.59,1.41-.59,2.07,0,2.27.04,2.74,1.17,2.74h7.62c1.02,0,1.52,0,1.88-.16.35-.2.59-.47,1.37-1.41.2-.23.47-.55.82-.55s1.95,1.13,2.5,1.52c.59.43,1.13.86,1.13,1.09,0,.47-.66.51-2.07.51H11.72c-.43,0-.66.16-.66.43,0,.43.08.74.23,1.25.59,2.11.94,3.24,1.76,5.28.74,1.88,1.6,4.06,2.93,5.59.27.39,1.05,1.41,1.52,1.41.82,0,2.34-3.79,2.62-4.53.78-1.99,2.07-6.17,2.07-8.28v-.35c0-.23.04-.51.35-.51.2,0,2.66,1.09,3.44,1.45.16.08.35.23.35.47s-.16.35-.63.63c-.62.39-.94,1.76-1.17,2.46-1.13,3.4-2.54,6.72-4.3,9.85-.16.27-.35.63-.35.94,0,1.21,3.28,3.2,4.26,3.75,2.27,1.29,4.77,2.54,7.35,3.05.86.2,2.74.47,3.48.55.23.04.43.08.43.2,0,.31-.47.39-1.09.51-1.64.35-2.58.86-3.83,2.11-.16.12-.31.23-.55.23-.94,0-4.38-2.07-5.31-2.66-1.76-1.13-3.4-2.42-4.96-3.75-.66-.63-1.33-1.25-1.84-1.25-.55,0-1.13.7-1.56,1.06-3.13,2.77-7.19,5.16-11.22,6.33-2.03.59-3.24.74-4.61.74-.12,0-.43,0-.43-.2,0-.08.31-.2.82-.35.94-.27,2.42-.78,3.56-1.29,2.11-.9,4.1-2.07,5.98-3.4,1.21-.86,5.28-3.91,5.28-5.35,0-.7-.62-1.48-.94-2.07-2.31-4.1-4.06-8.64-4.61-13.05-.12-.94-.47-1.21-1.17-1.21h-1.64Z"/>
  <path class="cls-1" d="M45.14,89.3c-.78,0-1.21.35-1.21,1.13v2.11c0,.39-.39.94-.78,1.25-.47.39-1.09.59-1.52.59-.39,0-.63-.2-.63-.59l.08-1.06c.04-.66.04-1.33.08-2.38.16-4.61.23-9.22.23-13.83,0-2.31,0-4.61-.31-6.92l-.08-.23c0-.16.04-.39.23-.39s.39.08.55.16c1.45.78,2.62,1.33,3.6,1.33h3.24c.66,0,1.13-.12,1.6-.59.23-.27.59-.7.94-.7s2.85,1.68,2.85,2.31c0,.23-.16.35-.47.59-.31.23-.51.55-.55.94-.08.98-.08,2.38-.08,3.52,0,3.6.12,7.23.2,10.82,0,.35.04.66.04,1.02,0,.55,0,1.21-.27,1.76-.31.66-1.17,1.25-1.92,1.25-.59,0-.86-.43-.86-.94,0-.78-.43-1.13-1.17-1.13h-3.79ZM49.17,79.42c.86,0,1.13-.12,1.13-1.41v-5.28c0-.47-.16-.86-.27-.98-.27-.23-.59-.27-.94-.27h-3.87c-1.13,0-1.25.59-1.25,1.41v.66c0,1.6-.04,3.17-.04,4.73,0,.78.39,1.13,1.17,1.13h4.06ZM45.06,80.47c-.66,0-1.13.31-1.13,1.02v5.71c0,.74.43,1.09,1.13,1.09h4.14c.74,0,1.13-.39,1.13-1.13v-5.59c0-.74-.39-1.09-1.13-1.09h-4.14ZM60.81,87.51c-.74,0-.94.35-1.02,1.09-.43,3.99-1.45,7.74-4.26,10.55-.86.86-1.8,1.8-2.81,2.42-.66.47-1.21.74-1.41.74-.12,0-.27-.04-.27-.16,0-.16.12-.27.55-.66,5.94-5.86,5.94-12.82,5.94-20.63,0-2.5,0-8.83-.59-10.98-.04-.12-.12-.39-.12-.55,0-.04.08-.12.12-.12.43,0,2.19.66,2.81.86.55.16,1.09.31,1.72.31h5.47c.94,0,1.29-.2,1.8-.94.16-.23.51-.55.7-.55.35,0,1.21.63,1.84,1.13.78.66,1.41,1.17,1.41,1.56,0,.31-.7.82-1.02,1.06-.35.27-.59.7-.59,1.95v2.89c0,5.12.08,10.12.16,15.12.04,2.07.16,4.69.16,6.21,0,1.99-1.84,4.03-3.4,4.03-.12,0-.23-.08-.27-.35-.12-1.25-1.45-1.99-2.34-2.34-.35-.16-.74-.31-.74-.43s.16-.2.27-.2c.78-.04,1.56-.04,2.34-.08,1.37-.04,1.41-.55,1.41-2.15v-4.38c0-1.37-.04-2.74-.04-4.14v-.23c0-.66-.47-1.06-1.13-1.06h-6.68ZM67.42,86.49c.66,0,1.13-.31,1.13-1.06v-4.34c0-.82-.04-1.45-.12-1.64-.2-.39-.66-.47-1.06-.47h-6.1c-.74,0-1.17.39-1.17,1.13v.2c0,1.68-.12,3.4-.12,5.08,0,.82.59,1.09,1.33,1.09h6.1ZM67.3,77.97c.94,0,1.25-.35,1.25-1.29v-3.95c0-.82-.23-1.29-1.13-1.29h-6.17c-.9,0-1.17.47-1.17,1.29v3.95c0,.9.31,1.29,1.25,1.29h5.98Z"/>
  <path class="cls-1" d="M88.48,77.97c-1.48,2.66-3.44,7.78-3.44,11.02,0,.66.23,2.19,1.09,2.19.35,0,.66-.31.98-.98.47-.98.86-2.19,1.02-2.62.08-.2.16-.43.35-.43s.2.31.2.47c0,.2-.2,1.33-.31,1.99-.23,1.21-.59,3.36-.59,3.95,0,.55.23,1.13.62,2.03.23.51.47,1.13.47,1.72,0,.74-.59,1.33-1.33,1.33-.98,0-1.84-1.21-2.27-2.11-1.17-2.58-1.92-5.43-1.92-8.28s.86-5.71,1.64-8.52c.35-1.33.66-2.66.66-4.06,0-.94-.12-2.07-.51-3.09-.04-.12-.12-.31-.12-.39,0-.12.16-.2.27-.2,1.84,0,3.48,3.48,3.48,5,0,.35-.12.66-.31.98ZM100.48,94.19c1.95,0,3.13-.12,4.69-.27.63-.08,1.52-.16,1.84-.16.94,0,1.76.43,1.76,1.41s-.82,1.45-1.72,1.6c-1.33.23-2.54.31-4.06.31h-1.02c-1.88,0-4.34-.23-5.9-1.72-.51-.51-1.25-1.29-1.25-2.03,0-.12,0-.35.2-.35.12,0,.35.16.51.27,1.21.82,2.81.94,4.3.94h.66ZM106.93,76.1c0,1.68-3.6,1.88-4.81,1.88-1.99,0-4.1-.51-5.74-1.68-.66-.47-1.09-.98-1.09-1.21,0-.16.16-.2.31-.2.08,0,.2.04.74.2.9.23,1.95.31,2.89.31,1.48,0,3.17-.16,4.73-.7.66-.23.98-.31,1.17-.31.82,0,1.8.82,1.8,1.72Z"/>
</svg>
