<?xml version="1.0" encoding="UTF-8"?>
<svg xmlns="http://www.w3.org/2000/svg" viewBox="0 0 108.77 40">
  <defs>
    <style>
      .cls-1 { fill: #000000; }
    </style>
  </defs>
  <path class="cls-1" d="M5.08,6.02c1.56,0,3.48,2.85,3.52,4.22,0,.31-.12.59-.23.9-.82,1.99-1.17,3.67-1.17,5.67,0,1.48.27,2.89.86,4.26.39.94,1.33,2.54,2.54,2.54.59,0,1.17-.98,1.84-2.15.2-.35.9-1.33,1.21-1.33.16,0,.2.2.2.35,0,.47-.27,1.37-.43,2.03-.12.55-.2,1.09-.2,1.68,0,.66.12,1.21.35,1.99.08.27.2.7.2.86,0,.78-.82,1.21-1.52,1.21-2.23,0-4.77-2.85-5.78-4.77-1.13-2.11-1.6-4.45-1.6-6.8,0-.9.23-3.36.43-5.12.08-.59.12-1.17.12-1.8,0-.98-.16-1.91-.43-2.85-.08-.23-.16-.51-.16-.74,0-.12.16-.16.27-.16ZM27.67,11.1c2.23,1.84,3.48,4.65,3.48,7.46,0,1.29-.39,2.58-1.95,2.58s-1.91-1.37-1.91-2.62v-1.06c0-3.6-.7-4.88-3.52-7.15-.16-.12-.43-.39-.43-.51,0-.16.23-.2.35-.2,1.06,0,2.97.63,3.99,1.48Z"/>
  <path class="cls-1" d="M46.82,28.45c0-3.32,4.42-4.1,7.03-4.1.35,0,.66,0,1.33.08.23.04.51.04.74.04.43,0,.43-.23.43-.82v-.63c0-1.48-.08-3.44-.08-4.42,0-.39-.16-.63-.51-.63s-.74.04-1.29.08c-.78.04-1.6.12-1.99.12-1.84,0-3.95-.27-5.39-1.6-.35-.35-1.13-1.33-1.13-1.8,0-.08,0-.16.12-.16.2,0,.43.08.94.31,1.64.7,3.52.94,5.31.94h.47c.98,0,2.58-.08,3.09-.47.27-.2.27-.43.39-2.31.08-.98.08-1.29.12-1.84l.04-1.09c0-.23-.08-.51-.59-.55-2.31-.16-5.43-1.76-5.43-3.71,0-.08.04-.27.16-.27s.31.16.43.23c1.33.9,2.7,1.45,4.46,1.45.43,0,1.17-.04,1.29-.59.2-.9.23-2.31.23-3.24,0-1.02-.31-1.8-.86-2.93-.04-.04-.12-.2-.12-.27,0-.27.7-.27.94-.27.82,0,3.2.86,3.2,1.8,0,.2-.04.35-.43,1.06-.66,1.21-.82,1.56-1.06,2.81-.08.39-.12.55-.12.7s.12.2.27.2.35-.04.59-.12c1.06-.39,1.41-.47,1.84-.47.47,0,1.13.2,1.13.74,0,1.33-2.34,2.15-3.56,2.5-.47.16-.59.27-.63.82-.12,1.25-.2,2.5-.2,3.75v.31c0,.59.04.82.55.82.31,0,1.21-.27,2.07-.7.66-.35,1.13-.82,1.13-1.33,0-.12-.04-.23-.08-.35-.04-.12-.08-.23-.08-.35s.12-.12.2-.12.2,0,.51.08c.51.12,1.41.16,2.19.27.82.12,1.13.39,1.13.94,0,1.48-5.35,3.52-6.68,3.91-.39.12-.78.23-.78.66,0,.55.23,3.36.39,4.65.08.74.08,1.06.16,1.64.08.51.23.86.66,1.02,1.92.74,5.78,2.89,5.78,5.2,0,.74-.47,1.68-1.33,1.68-.59,0-1.17-.7-2.11-1.88-.43-.55-2.11-2.11-2.74-2.11-.27,0-.39.35-.51.63-1.06,2.42-4.18,3.95-6.64,3.95s-5-1.52-5-4.26ZM56.08,27c0-.78-3.13-.94-3.75-.94-1.41,0-4.18.43-4.18,2.23,0,1.48,1.95,1.95,3.13,1.95,1.76,0,4.81-1.25,4.81-3.24Z"/>
  <path class="cls-1" d="M85.2,33.96c-.86,0-1.37-.9-1.72-1.56-.62-1.21-1.25-2.34-2.19-3.32-.66-.7-1.76-1.45-2.58-1.99-.23-.16-.43-.27-.43-.39,0-.23.31-.27.47-.27.86,0,2.77.66,3.79,1.13,1.76.78,4.18,2.27,4.18,4.49,0,.82-.59,1.91-1.52,1.91Z"/>
</svg>
