<?xml version="1.0" encoding="UTF-8"?>
<svg xmlns="http://www.w3.org/2000/svg" viewBox="0 135 108.77 36.22">
  <defs>
    <style>
      .cls-1 { fill: #000000; }
    </style>
  </defs>
  <path class="cls-1" d="M6.06,149.34c-.86,0-1.25.16-1.25,1.09v1.99c0,4.45.04,8.91.12,13.33.04.98.12,1.95.12,2.93,0,1.25-.7,2.54-2.11,2.54-.74,0-.98-.66-.98-1.33,0-.55,0-1.06.04-1.6l.23-7.85c.08-2.81.16-5.63.16-8.44v-9.42c0-1.02-.2-3.56-.23-3.99-.04-.35-.08-.94-.08-1.02,0-.12,0-.39.2-.39.35,0,1.13.35,2.11.86.39.2.63.31,1.17.31h5.63c.47,0,.78-.16,1.45-.82.2-.2.47-.39.74-.39.66,0,2.58,1.72,2.58,2.42,0,.16-.12.27-.55.51-.55.31-.62.74-.62,1.33v.7c0,1.33.04,2.7.08,4.06,0,.78.08,1.56.08,2.34,0,1.21-.39,2.54-1.84,2.54-.78,0-.98-.55-1.09-1.17-.12-.59-.78-.55-1.21-.55h-4.73ZM11.14,143.2c.7,0,1.02-.12,1.02-.82v-1.29c0-1.64-.04-1.72-1.02-1.72h-5.31c-.98,0-1.02.23-1.02,1.33v1.64c0,.7.27.86,1.02.86h5.31ZM5.86,144.22c-.7,0-1.05.08-1.05.86v2.23c0,.98.27,1.02,1.05,1.02h5.2c.7,0,1.06-.08,1.06-.9v-2.07c0-1.02-.12-1.13-1.06-1.13h-5.2ZM14.58,164.27c-.86,0-1.21.12-1.25,1.06,0,.47-.08,1.02-.43,1.37-.43.39-1.02.82-1.6.82-.82,0-.9-.82-.9-1.45,0-.35.12-2.23.16-2.81.08-1.09.08-2.07.08-3.17,0-1.6.08-3.2-.12-4.57-.04-.23-.12-.82-.12-.98,0-.12.04-.31.2-.31.31,0,1.72.63,2.46.98.39.2.74.27,1.13.27h5.86c.59,0,.82-.16,1.33-.82.2-.23.43-.51.74-.51.62,0,2.38,1.52,2.38,2.19,0,.23-.12.39-.59.78-.31.27-.31.7-.31,1.13v2.11c0,1.02.04,2.03.04,3.09s0,1.6-.82,2.27c-.35.27-.78.59-1.25.59-.59,0-.78-.59-.78-1.09,0-.78-.43-.94-1.25-.94h-4.96ZM19.62,163.21c1.21,0,1.41-.2,1.41-1.33l-.04-3.91c0-1.13,0-1.45-1.37-1.45h-5c-.55,0-1.33,0-1.37.66-.04.78,0,3.79,0,4.85s.39,1.17,1.37,1.17h5ZM23.6,149.34c-.51,0-1.06,0-1.21.55-.23.86-.94,1.25-1.8,1.25s-.98-.86-.98-1.56c0-2.31.04-4.57.04-6.84,0-1.37-.08-2.62-.12-3.13-.04-.55-.08-1.41-.08-1.6,0-.27.12-.63.43-.63.55,0,1.21.35,1.72.63.43.23.86.35,1.25.35h5.9c.66,0,.86-.27,1.25-.78.35-.47.59-.63.82-.63.55,0,2.54,1.41,2.54,1.99,0,.27-.23.51-.43.66-.51.39-.62.86-.62,1.48v17.86c0,2.38.08,4.81.08,7.19,0,1.91-.08,3.36-1.95,4.38-.43.23-.98.55-1.48.55-.47,0-.55-.23-.55-1.02,0-.94-1.72-1.72-2.54-2.11-.16-.08-.39-.2-.39-.35,0-.2.31-.2.43-.2.78,0,1.52.08,2.31.08,1.52,0,1.6-.51,1.6-1.72v-1.48c0-3.83.08-7.62.08-11.45v-2.34c0-.98-.35-1.13-1.29-1.13h-5ZM28.76,143.2c.94,0,1.13-.2,1.13-1.13v-1.56c0-.98-.2-1.13-1.13-1.13h-5.39c-.94,0-1.13.16-1.13,1.13v1.56c0,.94.2,1.13,1.13,1.13h5.39ZM23.37,144.22c-.74,0-1.09.04-1.09.86v2.34c0,.82.35.86,1.09.86h5.43c.74,0,1.09-.04,1.09-.86v-2.34c0-.78-.35-.86-1.09-.86h-5.43Z"/>
  <path class="cls-1" d="M64.37,154.14c0,6.33-3.56,11.37-8.91,14.46-1.13.66-2.23,1.17-3.48,1.6l-.66.2c-.12.04-.31.08-.43.08-.04,0-.12,0-.12-.08s.16-.23.86-.7c5.59-3.63,9.85-8.91,9.85-15.83,0-2.54-.94-5.51-3.95-5.51-2.19,0-4.34,1.06-5.63,2.77-.47.63-.78.98-1.41.98-1.52,0-3.6-2.34-3.6-2.97,0-.2.23-.31.39-.31s.7.08,1.02.16c.27.08.59.12.78.12.86,0,1.48-.27,2.23-.59,1.99-.86,4.06-1.95,6.29-1.95,4.53,0,6.76,3.32,6.76,7.58ZM53.39,138.24c1.25.27,2.03.35,3.05.35h1.52c1.17,0,3.4.9,3.4,2.27,0,.94-1.02,1.21-1.8,1.21-.23,0-.43,0-1.06-.08-.23-.04-.66-.08-.9-.08-.86,0-1.56.23-2.46.66-.98.47-2.11,1.09-3.09,1.68-.27.16-.43.23-.51.23-.04,0-.12-.04-.12-.16,0-.04.04-.08.16-.23.55-.66,2.54-3.05,2.54-3.6,0-.27-.27-.43-1.02-.78-.86-.43-2.62-1.52-2.62-1.8,0-.2.27-.2.39-.2.2,0,1.72.35,2.5.51Z"/>
  <path class="cls-1" d="M87.7,166.42c0,2.19-1.76,4.34-4.38,4.34s-4.3-2.19-4.3-4.38c0-2.97,2.58-4.3,4.34-4.3,2.54,0,4.34,2.11,4.34,4.34ZM80.12,166.38c0,1.8,1.45,3.28,3.28,3.28,1.68,0,3.24-1.33,3.24-3.2,0-1.52-1.17-3.28-3.32-3.28s-3.2,1.68-3.2,3.2Z"/>
</svg>
