<?xml version="1.0" encoding="UTF-8"?>
<svg id="_レイヤー_1" data-name="レイヤー_1" xmlns="http://www.w3.org/2000/svg" version="1.1" viewBox="0 0 226.44 221.5">
  <!-- Generator: Adobe Illustrator 30.1.0, SVG Export Plug-In . SVG Version: 2.1.1 Build 136)  -->
  <defs>
    <style>
      .st0 {
        fill: #fff;
      }
    </style>
  </defs>
  <path class="st0" d="M146.16,54.62c-15.03,0-24.7,8-24.7,20.25s9.67,20.25,24.7,20.25,24.73-8.03,24.73-20.27-9.67-20.14-24.73-20.14v-.08ZM146.16,92.74c-10.16,0-17.07-7.4-17.07-17.88s6.91-17.85,17.07-17.85,17.09,7.37,17.09,17.85-6.91,17.95-17.09,17.95v-.08ZM54.72,74.76c0,15.35,11.02,26.06,27.07,26.06,10.06,0,17.28-2.87,20.85-8.08h1.54s-.16,3.02-.29,5.21c-6.31,4.48-14.8,5.89-22.85,5.89-20.85,0-35.88-11.05-35.88-29s15.11-29.03,35.88-29.03c8.18.14,16.28,1.66,23.95,4.51-1.03,2.06-1.78,4.24-2.24,6.49-.52.02-1.03.08-1.54.18-3.23-5.73-10.27-8.13-19.52-8.13-15.92-.08-26.97,10.55-26.97,25.9ZM80.52,119.37c-.5,6.57-.78,20.64-.78,27.99s.29,21.45.78,28.01c-1.09,0-3-.18-4.38-.18s-3.31,0-4.4.18c.5-6.57.81-20.64.81-28.01s-.31-21.42-.81-27.99c1.09,0,3,.18,4.4.18s3.28-.1,4.38-.18ZM174.92,119.37c-.63,7.56-.81,19.96-.81,27.31,0,14.96-3.57,29.91-29.05,29.91-19.96,0-27.83-9.07-27.7-23.3v-6.62c0-7.35-.29-20.85-.78-27.31,1.09,0,3,.18,4.38.18s3.31,0,4.4-.18c-.5,6.57-.81,19.88-.81,27.26,0,16.44,1.41,26.6,22.15,26.6,12.59,0,19.2-5.58,21.65-13.84.91-4.17,1.28-8.45,1.09-12.72,0-7.35-.5-20.64-1.22-27.31.83,0,2.27.18,3.34.18s2.53-.1,3.36-.18ZM226.44,110.75c.31,72.05-45.42,102.04-113.22,101.62C45.47,212.74-.31,182.75,0,110.75-.29,38.75,45.42,8.76,113.22,9.13c67.75-.36,113.53,29.63,113.22,101.62ZM219.92,110.75c.73-69.03-40.6-99.3-106.7-99.54C47.14,11.45,5.84,41.72,6.52,110.75c-.68,69.16,40.62,99.43,106.7,99.67,66.08-.23,107.43-30.51,106.83-99.59l-.13-.08Z"/>
</svg>