<?xml version="1.0" encoding="UTF-8"?>
<svg id="_レイヤー_2" data-name="レイヤー 2" xmlns="http://www.w3.org/2000/svg" viewBox="0 0 386.35 27.63">
  <defs>
    <style>
      .cls-1 {
        fill: #000;
      }
    </style>
  </defs>
  <g id="_レイヤー_1-2" data-name="レイヤー 1">
    <path class="cls-1" d="M45.97,13.86v-1.58h8.63v1.58h-8.63ZM33.02,6.06c-5.2,0-8.55,2.77-8.55,7.01s3.35,7.01,8.55,7.01,8.55-2.77,8.55-7.01-3.35-7.01-8.55-7.01ZM33.02,19.24c-3.52,0-5.91-2.56-5.91-6.18s2.39-6.18,5.91-6.18,5.91,2.56,5.91,6.18-2.39,6.18-5.91,6.18ZM12.64,1.05c3.19,0,5.63.83,6.75,2.81.13-.03.36-.05.53-.06.18-.8.38-1.46.78-2.24-2.54-.93-5.48-1.56-8.29-1.56C5.23,0,0,3.82,0,10.03s5.23,10.03,12.41,10.03c2.78,0,5.73-.49,7.91-2.04.04-.73.1-1.78.1-1.78-.17,0-.42-.01-.53-.02-1.27,1.8-3.77,2.8-7.24,2.8-5.55,0-9.36-3.68-9.36-8.99S7.09,1.05,12.64,1.05ZM62.5.37c-.21.03-1.06.06-1.52.06s-1.31-.03-1.52-.06c.18,1.61.25,7.98.25,9.68s-.07,8.07-.25,9.68c.21-.03,1.06-.06,1.52-.06s1.31.03,1.52.06c-.18-1.61-.25-7.98-.25-9.68s.07-8.07.25-9.68ZM190.69,6.06c-5.2,0-8.55,2.77-8.55,7.01s3.35,7.01,8.55,7.01,8.55-2.77,8.55-7.01-3.35-7.01-8.55-7.01ZM190.69,19.24c-3.52,0-5.91-2.56-5.91-6.18s2.39-6.18,5.91-6.18,5.91,2.56,5.91,6.18-2.39,6.18-5.91,6.18ZM253.78.43c-.37,0-.86-.03-1.15-.06.25,2.31.42,6.9.42,9.44,0,1.67-.06,3.32-.38,4.4-.85,2.86-3.14,4.78-7.49,4.78-7.18,0-7.66-3.51-7.66-9.2,0-2.55.1-7.16.28-9.42-.38.03-1.04.06-1.52.06s-1.14-.03-1.52-.06c.17,2.26.28,6.9.28,9.44,0,.62-.02,1.67-.02,2.29-.04,4.92,2.68,8.05,9.58,8.05,8.81,0,10.05-5.17,10.05-10.34,0-2.55.06-6.83.28-9.44-.29.03-.78.06-1.15.06ZM280.7,3.07c.82,0,1.49-.67,1.49-1.49s-.67-1.49-1.49-1.49-1.49.67-1.49,1.49.67,1.49,1.49,1.49ZM280.72,6.45c-.47,0-1.18-.03-1.4-.06.18,1.61.25,4.97.25,6.67s-.07,5.05-.25,6.67c.21-.03.93-.06,1.4-.06s1.18.03,1.4.06c-.18-1.61-.25-4.97-.25-6.67s.07-5.05.25-6.67c-.21.03-.93.06-1.4.06ZM176.35,3.07c.82,0,1.49-.67,1.49-1.49s-.67-1.49-1.49-1.49-1.49.67-1.49,1.49.67,1.49,1.49,1.49ZM176.37,6.45c-.47,0-1.18-.03-1.4-.06.18,1.61.25,4.97.25,6.67s-.07,5.05-.25,6.67c.21-.03.93-.06,1.4-.06s1.18.03,1.4.06c-.18-1.61-.25-4.97-.25-6.67s.07-5.05.25-6.67c-.21.03-.93.06-1.4.06ZM101.78,13.95c0-2.3-.04-4.32-.77-5.55-.98-1.65-2.79-2.26-5-2.26-2.4,0-5.01,1.3-5.82,3.34.04-1.19.11-2.31.2-3.09-.21.03-.84.06-1.31.06s-1.09-.03-1.31-.06c.18,1.61.25,4.97.25,6.67s-.07,5.05-.25,6.67c.21-.03.93-.06,1.4-.06s1.18.03,1.4.06c-.18-1.61-.25-4.97-.25-6.67,0-.23,0-.58,0-.86,0-2.24,1.19-4.9,5.23-4.9,2.93,0,3.93,1.87,3.93,5.78,0,.29,0,.19,0,.42,0,1.7-.07,4.61-.25,6.22.21-.03.93-.06,1.4-.06s1.18.03,1.4.06c-.18-1.61-.25-4.08-.25-5.78ZM217.63,13.95c0-2.3-.04-4.32-.77-5.55-.98-1.65-2.79-2.26-5-2.26-2.4,0-5.01,1.3-5.82,3.34.04-1.19.11-2.31.2-3.09-.21.03-.84.06-1.31.06s-1.09-.03-1.31-.06c.18,1.61.25,4.97.25,6.67s-.07,5.05-.25,6.67c.21-.03.93-.06,1.4-.06s1.18.03,1.4.06c-.18-1.61-.25-4.97-.25-6.67,0-.23,0-.58,0-.86,0-2.24,1.19-4.9,5.23-4.9,2.93,0,3.93,1.87,3.93,5.78,0,.29,0,.19,0,.42,0,1.7-.07,4.61-.25,6.22.21-.03.93-.06,1.4-.06s1.18.03,1.4.06c-.18-1.61-.25-4.08-.25-5.78ZM273.95,13.95c0-2.3-.04-4.32-.77-5.55-.98-1.65-2.79-2.26-5-2.26-2.4,0-5.01,1.3-5.82,3.34.04-1.19.11-2.31.2-3.09-.21.03-.84.06-1.31.06s-1.09-.03-1.31-.06c.18,1.61.25,4.97.25,6.67s-.07,5.05-.25,6.67c.21-.03.93-.06,1.4-.06s1.18.03,1.4.06c-.18-1.61-.25-4.97-.25-6.67,0-.23,0-.58,0-.86,0-2.24,1.19-4.9,5.23-4.9,2.93,0,3.93,1.87,3.93,5.78,0,.29,0,.19,0,.42,0,1.7-.07,4.61-.25,6.22.21-.03.93-.06,1.4-.06s1.18.03,1.4.06c-.18-1.61-.25-4.08-.25-5.78ZM169.64,18.42c-.45.2-1.51.43-2.25.43-2.05,0-2.46-1.27-2.5-3.28-.04-2.31,0-6.21.04-8.26h4.73v-.91h-4.71c.03-1.11.07-3.1.14-3.96-.77.34-2.12.85-2.6,1.01.06.87.1,2.2.12,2.94h-2.56v.91h2.57c0,2.15-.11,7.35-.08,9.2.04,2.21.84,3.34,3.42,3.34,1.06,0,2.74-.14,3.91-.78l-.23-.64ZM139.69,6.45c-.47,0-.79-.03-.99-.06-.84,2.48-3.73,8.63-5.25,11.34-1.03-1.94-4.52-9.25-5.4-11.34-.2.03-.9.06-1.37.06s-1.24-.03-1.47-.06c1.74,2.83,5.01,9.53,6.65,13.33.67-.08,1.25-.08,1.99,0,.67-1.61,2.35-4.83,3.24-6.53.89-1.7,2.62-5.19,3.64-6.8-.23.03-.58.06-1.05.06ZM300.46,6.45c-.47,0-.79-.03-.99-.06-.84,2.48-3.73,8.63-5.25,11.34-1.03-1.94-4.52-9.25-5.4-11.34-.2.03-.9.06-1.37.06s-1.24-.03-1.47-.06c1.74,2.83,5.01,9.53,6.65,13.33.67-.08,1.25-.08,1.99,0,.67-1.61,2.35-4.83,3.24-6.53.89-1.7,2.62-5.19,3.64-6.8-.23.03-.58.06-1.05.06ZM157.02,19.11c-1.42,0-1.8-.85-1.8-2.21s.14-4.28.14-5.58c0-2.86-.57-5.26-5.59-5.26-2.48,0-4.5.71-5.73,2.23.13.59.26,1.4.34,2.01l.57.03c.47-2.2,2.25-3.44,4.38-3.44,2.82,0,3.66,1.45,3.66,3.81-.05.78-.19.89-5.25,1.63-3.04.48-4.99,1.47-4.99,3.91,0,2.6,2.33,3.65,4.67,3.65s4.3-1.03,5.51-2.21c.11,1.31,1.03,2.17,2.57,2.17.78,0,1.56-.09,2.05-.2v-.57c-.14.03-.28.03-.53.03ZM148.44,18.83c-1.59,0-3.11-.59-3.11-2.8,0-2.44,2.24-3.2,7.63-3.84-.02,1.27-.06,2.78-.06,4.18-.75,1.53-2.86,2.47-4.46,2.47ZM312.1,6.06c-5.2,0-8.55,2.77-8.55,7.01s3.35,7.01,8.55,7.01c2.05,0,4.48-.54,5.79-1.33.1-.46.21-.93.35-1.41-.13-.04-.23-.07-.35-.11-1.01,1.17-3.59,2.03-5.79,2.03-3.51,0-6-2.54-6.02-6.15h13.2c.41-4.09-2.56-7.04-7.18-7.04ZM312.1,6.88c2.99,0,4.9,2.23,4.93,5.33h-10.9c.36-3.17,2.73-5.33,5.97-5.33ZM82.4,13.95c0-2.3-.04-4.32-.77-5.55-.98-1.65-2.79-2.26-5-2.26-2.4,0-5.01,1.3-5.82,3.34.04-1.19.11-2.31.2-3.09-.21.03-.84.06-1.31.06s-1.09-.03-1.31-.06c.18,1.61.25,4.97.25,6.67s-.07,5.05-.25,6.67c.21-.03.93-.06,1.4-.06s1.18.03,1.4.06c-.18-1.61-.25-4.97-.25-6.67,0-.23,0-.58,0-.86,0-2.24,1.19-4.9,5.23-4.9,2.93,0,3.93,1.87,3.93,5.78,0,.29,0,.19,0,.42,0,1.7-.07,4.61-.25,6.22.21-.03.93-.06,1.4-.06s1.18.03,1.4.06c-.18-1.61-.25-4.08-.25-5.78ZM331.3,6.2c-1.95,0-3.85,1-5.08,3.28.04-1.19.11-2.31.2-3.09-.21.03-.84.06-1.31.06s-1.09-.03-1.31-.06c.18,1.61.25,4.97.25,6.67s-.07,5.05-.25,6.67c.21-.03.93-.06,1.4-.06s1.18.03,1.4.06c-.18-1.61-.25-4.97-.25-6.67,0-.23,0-.58,0-.86,0-2.24,1.34-4.5,4.03-4.5.71,0,1.4.15,1.94.55.11-.58.46-1.46.71-1.85-.44-.14-1.16-.2-1.73-.2ZM340.26,20.07c-2.12,0-3.98-.78-4.85-1.6.18-.67.37-1.5.52-2.25h.39c.58,1.85,1.97,3.03,3.85,3.03s3.69-.73,3.6-2.62c-.09-1.65-1.23-2.05-3.8-2.81-2.11-.59-3.95-1.74-4.07-3.83-.15-2.54,2.49-3.92,5.18-3.92,1.52,0,3.03.49,4,1.04-.26.62-.48,1.56-.6,2.18h-.46c-.33-1.23-1.17-2.4-3.02-2.4-1.7,0-3.09.85-3.04,2.51.06,1.57,1.54,2.3,3.54,2.83,2.79.76,4.3,1.75,4.47,3.71.22,2.65-2.73,4.14-5.69,4.14ZM352.28.08c-.82,0-1.49.67-1.49,1.49s.67,1.49,1.49,1.49,1.49-.67,1.49-1.49-.67-1.49-1.49-1.49ZM353.44,13.06c0,1.7.07,5.05.25,6.67-.21-.03-.93-.06-1.4-.06s-1.18.03-1.4.06c.18-1.61.25-4.97.25-6.67s-.07-5.05-.25-6.67c.21.03.93.06,1.4.06s1.18-.03,1.4-.06c-.18,1.61-.25,4.97-.25,6.67ZM385.28,6.45c-.33,0-.82-.03-.95-.06-1.14,2.69-3.46,7.58-5.53,11.2-1.11-2.13-4.46-9.15-5.32-11.2-.2.03-.9.06-1.37.06s-1.24-.03-1.47-.06c1.68,2.72,5.21,9.44,6.94,13.33-1.37,2.39-3.5,6.09-4.78,7.9.17-.03,1.05-.06,1.38-.06s.82.03.95.06c.72-1.61,4.28-8.76,5.43-10.75.96-1.66,4.82-8.87,5.79-10.48-.17.03-.74.06-1.07.06ZM367.98,18.42c-.45.2-1.51.43-2.25.43-2.05,0-2.46-1.27-2.5-3.28-.04-2.31,0-6.21.04-8.26h4.73v-.91h-4.71c.03-1.11.07-3.1.14-3.96-.77.34-2.12.85-2.6,1.01.06.87.1,2.2.12,2.94h-2.56v.91h2.57c0,2.15-.11,7.35-.08,9.2.04,2.21.84,3.34,3.42,3.34,1.06,0,2.74-.14,3.91-.78l-.23-.64ZM114.63,6.06c-5.2,0-8.55,2.77-8.55,7.01s3.35,7.01,8.55,7.01,8.55-2.77,8.55-7.01-3.35-7.01-8.55-7.01ZM114.63,19.24c-3.52,0-5.91-2.56-5.91-6.18s2.39-6.18,5.91-6.18,5.91,2.56,5.91,6.18-2.39,6.18-5.91,6.18Z"/>
  </g>
</svg>